<?xml version="1.0" encoding="UTF-8"?>
<svg id="Layer_1" xmlns="http://www.w3.org/2000/svg" version="1.1" viewBox="0 0 1600 444.5">
  <!-- Generator: Adobe Illustrator 30.3.0, SVG Export Plug-In . SVG Version: 2.1.3 Build 182)  -->
  <defs>
    <style>
      .st0 {
        fill: #fff;
      }
    </style>
  </defs>
  <g>
    <path class="st0" d="M106.9,88.9c46.9,0,85.1,24.9,99.4,68.2h-48.7c-10-20.1-28.2-30.1-50.9-30-36.9,0-63.2,27-63.1,70,0,42.6,26.5,69.8,63.4,69.8,22.7,0,40.8-10.1,50.8-30.7h48.7c-14.1,43.5-52.2,68.4-99.1,68.5C46.5,304.7.1,260.4,0,197.1s46.1-108.1,106.9-108.2Z"/>
    <path class="st0" d="M321.7,91.2c50.8,0,76.3,29.2,76.4,64.6,0,25.7-14.1,51.8-48,60.9l50.7,85.5h-49c0,.1-46.8-82.1-46.8-82.1h-20s.2,82.3.2,82.3h-42.4c0,0-.4-211.1-.4-211.1l79.3-.2h0ZM320.2,126.3h-35.4c0,0,.1,62.1.1,62.1h35.4c23.6-.1,34.2-12.5,34.1-31.6,0-18.8-10.6-30.5-34.2-30.5h0Z"/>
    <path class="st0" d="M558.9,124.9l-80.2.2v52.9c.1,0,71.2-.1,71.2-.1v33.6c0,0-71,.1-71,.1v56c.1,0,80.3-.2,80.3-.2v34.5c0,0-122.4.2-122.4.2l-.4-211.4,122.5-.2s0,34.5,0,34.5Z"/>
    <path class="st0" d="M727.1,261.3l-84.1.2-13.8,40.3h-44.5c0,0,75.5-211.5,75.5-211.5h49.3c0,0,76.3,211.2,76.3,211.2h-44.8c0,0-14-40.1-14-40.1h0ZM684.8,139.2l-30.4,88.4h61.1c0-.1-30.7-88.4-30.7-88.4Z"/>
    <path class="st0" d="M813.9,90.2h48.1c0,0,67.5,156.8,67.5,156.8l66.8-157.1h47.8c0,0,.4,211.1.4,211.1h-42.3c0,0-.3-137.3-.3-137.3l-56.3,137.5h-32.1c0,0-57.1-137.2-57.1-137.2l.3,137.3h-42.3c0,0-.4-211.1-.4-211.1h0Z"/>
    <path class="st0" d="M1184.2,302.8c-59.6.1-108.4-44.6-108.5-108.1-.1-63.2,48.5-108.1,108.1-108.2,60.2-.1,108.1,44.6,108.2,107.8.1,63.5-47.9,108.4-107.8,108.5h0ZM1184.2,265c38.1,0,64.4-27.6,64.3-70.6,0-43-26.5-69.8-64.6-69.8-38.4,0-64.7,27.1-64.6,70,0,43,26.5,70.4,64.9,70.4h0Z"/>
    <path class="st0" d="M1396.6,302.4c-43.9,0-77.8-22.8-78.5-62.8h45.4c1.2,16.8,12.5,28,32.1,28,20,0,31.7-10.6,31.7-25.8,0-45.7-108.9-17.9-108.8-94.5,0-38.1,30.7-61.2,74.3-61.2,43.3,0,72.9,21.9,75.8,60.1h-46.6c-.9-13.8-12.2-24.7-30.3-25-16.6-.6-29,7.6-29,24.9,0,42.4,108.3,18.5,108.5,93,0,33.3-26.5,63.3-74.6,63.4h0Z"/>
  </g>
  <path class="st0" d="M1567.9,45c0-5.2-1.4-10.1-5.9-12.9-3.6-2.3-9.2-2.1-13.4-2.1h-24.1s0,49.4,0,49.4h11.8s0-20.9,0-20.9h6.4l10.1,20.8h13.6s-10.9-20.8-10.9-20.8c7.7-.7,12.4-4.3,12.3-13.5h0ZM1548.1,49.9h-11.8s0-11.3,0-11.3h9.8c3.9,0,9.9,0,10,5.2,0,5.1-3.3,6.1-7.9,6.1Z"/>
  <g>
    <path class="st0" d="M439,369.7h16s13.3,57.9,13.3,57.9l15.1-58h16.7s14.4,57.6,14.4,57.6l13.1-57.6h16.1s-20.7,74.6-20.7,74.6h-17.6s-14.1-53.1-14.1-53.1l-14.5,53.1h-17.5c0,.1-20.2-74.5-20.2-74.5h0Z"/>
    <path class="st0" d="M600.2,381.4h-28.3c0,0,0,18.8,0,18.8h25.1s0,11.8,0,11.8h-25.1s0,19.8,0,19.8h28.3c0,0,0,12.1,0,12.1h-43.3c0,0-.2-74.6-.2-74.6h43.3c0,0,0,12.1,0,12.1h0Z"/>
    <path class="st0" d="M680,368.2c16.6,0,30,8.8,35.1,24.1h-17.2c-3.5-7.1-10-10.6-18-10.6-13,0-22.3,9.6-22.3,24.7,0,15.1,9.3,24.7,22.4,24.6,8,0,14.4-3.6,17.9-10.8h17.2c-5,15.4-18.4,24.2-35,24.2-21.5,0-37.9-15.6-37.9-38s16.3-38.2,37.8-38.2h0Z"/>
    <path class="st0" d="M759.2,369c18,0,27,10.3,27,22.8,0,9.1-5,18.3-17,21.5l17.9,30.2h-17.3s-16.5-29-16.5-29h-7v29.1c0,0-14.9,0-14.9,0l-.2-74.6h28c0,0,0,0,0,0ZM758.7,381.4h-12.5s0,21.9,0,21.9h12.5c8.3,0,12.1-4.4,12.1-11.2,0-6.6-3.8-10.8-12.1-10.8Z"/>
    <path class="st0" d="M846.3,381h-28.3c0,0,0,18.8,0,18.8h25.1s0,11.8,0,11.8h-25.1s0,19.8,0,19.8h28.3c0,0,0,12.1,0,12.1h-43.3c0,0-.2-74.6-.2-74.6h43.3c0,0,0,12.1,0,12.1h0Z"/>
    <path class="st0" d="M909.1,429.1h-29.7c0,0-4.9,14.3-4.9,14.3h-15.7s26.7-74.7,26.7-74.7h17.4s27,74.6,27,74.6h-15.8s-5-14.2-5-14.2h0ZM894.1,386l-10.7,31.2h21.6s-10.9-31.2-10.9-31.2h0Z"/>
    <path class="st0" d="M939.1,368.7h54.7c0-.1,0,12,0,12h-19.9s.1,62.6.1,62.6h-15s-.1-62.5-.1-62.5h-19.9s0-12,0-12h0Z"/>
    <path class="st0" d="M1051.3,380.5h-28.3c0,0,0,18.8,0,18.8h25.1s0,11.8,0,11.8h-25.1s0,19.8,0,19.8h28.3c0,0,0,12.1,0,12.1h-43.3c0,0-.2-74.6-.2-74.6h43.3c0,0,0,12.1,0,12.1h0Z"/>
  </g>
  <g>
    <rect class="st0" x="111.3" y="405.8" width="282.4" height="3.4" transform="translate(-.8 .5) rotate(-.1)"/>
    <path class="st0" d="M111.3,416.1c-1.8,0-3.5-.7-4.7-2-1.3-1.3-2-3-2-4.8v-3.4c0-3.7,3-6.7,6.7-6.7l282.3-.6h0c1.8,0,3.5.7,4.7,2s2,3,2,4.8v3.4c0,3.7-3,6.7-6.7,6.7l-282.4.6h0,0Z"/>
  </g>
  <g>
    <rect class="st0" x="1107.6" y="406.2" width="282.4" height="3.4" transform="translate(-.8 2.4) rotate(-.1)"/>
    <path class="st0" d="M1107.6,416.5c-1.8,0-3.5-.7-4.7-2-1.3-1.3-2-3-2-4.8v-3.4c0-3.7,3-6.7,6.7-6.7l282.3-.6h0c1.8,0,3.5.7,4.7,2,1.3,1.3,2,3,2,4.8v3.4c0,3.7-3,6.7-6.7,6.7l-282.3.6h0Z"/>
  </g>
  <path class="st0" d="M1544.5,13.4c23.2,0,42,18.8,42,42s-18.8,42-42,42-42-18.8-42-42,18.8-42,42-42M1544.5,0C1513.9,0,1489.1,24.8,1489.1,55.5s24.8,55.5,55.5,55.5,55.5-24.8,55.5-55.5S1575.2,0,1544.5,0h0Z"/>
</svg>